<svg xmlns="http://www.w3.org/2000/svg" width="536" height="158" viewBox="0 0 536 158" fill="none"><path d="M1 46.8421V1H38V29.4624V57.9248L33.5388 64.4627C32.8615 65.4552 31.9052 66.2247 30.7906 66.6738C28.7575 67.4932 26.4405 67.1541 24.7275 65.7864L1 46.8421Z" fill="#0C3453" stroke="#0C3453"></path><path d="M147 46.8421V1H110V29.4624V57.9248L114.461 64.4627C115.139 65.4552 116.095 66.2247 117.209 66.6738C119.243 67.4932 121.559 67.1541 123.273 65.7864L147 46.8421Z" fill="#0C3453" stroke="#0C3453"></path><path d="M147 103.158V149H110V120.538V92.0752L114.461 85.5373C115.139 84.5448 116.095 83.7753 117.209 83.3262C119.243 82.5068 121.559 82.8459 123.273 84.2136L147 103.158Z" fill="#0C3453" stroke="#0C3453"></path><path d="M1 103.158V149H38V120.538V92.0752L33.5388 85.5373C32.8615 84.5448 31.9052 83.7753 30.7906 83.3262C28.7575 82.5068 26.4405 82.8459 24.7275 84.2136L1 103.158Z" fill="#0C3453" stroke="#0C3453"></path><path d="M58 64.5V1.5H91V64.5C91.9747 68.3988 94.1639 71.8866 97.2512 74.4593L98.5 75.5L96.6949 77.4555C93.9425 80.4372 91.9842 84.0633 91 88V148.5C85.4256 149.484 80.1943 151.873 75.8011 155.443L74.5 156.5L73.895 155.976C69.386 152.068 63.8856 149.481 58 148.5V88C56.6817 84.0452 54.5377 80.4159 51.7102 77.3527L50 75.5L51.1413 74.5489C54.3174 71.9021 56.6926 68.4222 58 64.5Z" fill="#0C3453" stroke="#0C3453"></path><path d="M20 76.5L12 69C11.3547 71.9038 9.69192 74.4811 7.31218 76.2659L7 76.5C9.55288 78.0956 11.3347 80.6734 11.9251 83.6254L12 84L20 76.5Z" fill="#0C3453" stroke="#0C3453"></path><path d="M129 76.5L137 69C137.645 71.9038 139.308 74.4811 141.688 76.2659L142 76.5C139.447 78.0956 137.665 80.6734 137.075 83.6254L137 84L129 76.5Z" fill="#0C3453" stroke="#0C3453"></path><path d="M184.464 22.0778L186.335 20.2071C187.273 19.2694 188.545 18.7426 189.871 18.7426H192.721C193.966 18.7426 195.166 19.2074 196.087 20.0459L231.42 52.2237C232.46 53.1712 233.053 54.5132 233.053 55.9204V95.3841C233.053 96.7913 232.46 98.1333 231.42 99.0808L196.087 131.259C195.167 132.097 193.966 132.562 192.721 132.562H190.403C188.771 132.562 187.242 131.766 186.307 130.429L183.904 126.997C183.316 126.156 183 125.155 183 124.129V25.6133C183 24.2872 183.527 23.0155 184.464 22.0778Z" stroke="#0C3453" stroke-width="8"></path><path d="M259.68 17.3713C259.68 15.1622 257.889 13.3713 255.68 13.3713C253.471 13.3713 251.68 15.1622 251.68 17.3713H259.68ZM251.68 17.3713V138.047H259.68V17.3713H251.68Z" fill="#0C3453"></path><path d="M407.782 17.3713C407.782 15.1622 405.991 13.3713 403.782 13.3713C401.573 13.3713 399.782 15.1622 399.782 17.3713H407.782ZM399.782 17.3713V138.047H407.782V17.3713H399.782Z" fill="#0C3453"></path><path d="M285.849 138.047V77.717M336.587 138.047V77.717M285.849 77.717V26.3564C285.849 25.0517 286.359 23.7987 287.27 22.8648L292.778 17.2184C293.538 16.4393 294.581 16 295.669 16V16C296.745 16 297.776 16.429 298.534 17.192L334.292 53.1788C334.469 53.3569 334.632 53.548 334.78 53.7506L335.623 54.9015C336.249 55.7583 336.587 56.7923 336.587 57.854V77.717M285.849 77.717H336.587" stroke="#0C3453" stroke-width="8"></path><path d="M370.87 17.3713V138.047" stroke="#0C3453" stroke-width="8"></path><path d="M357.157 18.7426H384.583" stroke="#0C3453" stroke-width="8" stroke-linecap="round"></path><path d="M433.265 132.562V26.5973C433.265 25.0976 433.938 23.6772 435.099 22.7275L437.677 20.6186C439.502 19.1247 442.124 19.1103 443.966 20.584L480.07 49.4673C481.256 50.4162 481.947 51.8528 481.947 53.3717V132.562" stroke="#0C3453" stroke-width="8" stroke-linecap="square"></path><path d="M529.457 29.3726C531.163 30.777 533.683 30.533 535.088 28.8277C536.492 27.1224 536.248 24.6015 534.543 23.1972L529.457 29.3726ZM507.43 133.248V137.248H515.43V133.248H507.43ZM534.543 23.1972L525.959 16.1281L520.873 22.3036L529.457 29.3726L534.543 23.1972ZM514.75 15.9419L510.943 18.8706L515.821 25.2116L519.628 22.2829L514.75 15.9419ZM507.43 26.0042V133.248H515.43V26.0042H507.43ZM510.943 18.8706C508.728 20.5743 507.43 23.21 507.43 26.0042H515.43C515.43 25.6938 515.575 25.4009 515.821 25.2116L510.943 18.8706ZM525.959 16.1281C522.722 13.4626 518.074 13.3854 514.75 15.9419L519.628 22.2829C519.997 21.9988 520.514 22.0074 520.873 22.3036L525.959 16.1281Z" fill="#0C3453"></path><path d="M499.774 77.7092H526.515" stroke="#0C3453" stroke-width="8" stroke-linecap="round"></path></svg>